<svg width="19" height="19" viewBox="0 0 19 19" fill="none" xmlns="http://www.w3.org/2000/svg">
<g clip-path="url(#clip0)">
<path d="M9.88833 2.92267C10.0884 2.92267 10.2804 2.84317 10.4219 2.70167C10.5634 2.56017 10.6429 2.36825 10.6429 2.16813V1.41359C10.6429 1.21348 10.5634 1.02156 10.4219 0.880056C10.2804 0.738553 10.0884 0.659058 9.88833 0.659058C9.68821 0.659058 9.49629 0.738553 9.35479 0.880056C9.21328 1.02156 9.13379 1.21348 9.13379 1.41359V2.16813C9.13379 2.36825 9.21328 2.56017 9.35479 2.70167C9.49629 2.84317 9.68821 2.92267 9.88833 2.92267Z" fill="#0B213C"/>
<path d="M5.22063 4.41511C5.36211 4.55669 5.55404 4.63627 5.7542 4.63634C5.95435 4.63641 6.14634 4.55697 6.28792 4.41548C6.4295 4.274 6.50908 4.08207 6.50915 3.88192C6.50922 3.68176 6.42978 3.48977 6.2883 3.34819L5.75333 2.81398C5.61102 2.67654 5.42043 2.60048 5.22259 2.6022C5.02475 2.60392 4.83551 2.68327 4.69561 2.82317C4.55571 2.96307 4.47636 3.15232 4.47464 3.35015C4.47292 3.54799 4.54897 3.73859 4.68642 3.8809L5.22063 4.41511Z" fill="#0B213C"/>
<path d="M3.28579 8.7703H4.04032C4.24044 8.7703 4.43236 8.69081 4.57386 8.5493C4.71536 8.4078 4.79486 8.21588 4.79486 8.01577C4.79486 7.81565 4.71536 7.62373 4.57386 7.48223C4.43236 7.34073 4.24044 7.26123 4.04032 7.26123H3.28579C3.08567 7.26123 2.89375 7.34073 2.75225 7.48223C2.61075 7.62373 2.53125 7.81565 2.53125 8.01577C2.53125 8.21588 2.61075 8.4078 2.75225 8.5493C2.89375 8.69081 3.08567 8.7703 3.28579 8.7703Z" fill="#0B213C"/>
<path d="M14.5561 4.41511L15.0903 3.8809C15.2278 3.73859 15.3038 3.54799 15.3021 3.35015C15.3004 3.15232 15.221 2.96307 15.0811 2.82317C14.9412 2.68327 14.752 2.60392 14.5541 2.6022C14.3563 2.60048 14.1657 2.67654 14.0234 2.81398L13.4884 3.34819C13.347 3.48977 13.2675 3.68176 13.2676 3.88192C13.2676 4.08207 13.3472 4.274 13.4888 4.41548C13.6304 4.55697 13.8224 4.63641 14.0225 4.63634C14.2227 4.63627 14.4146 4.55669 14.5561 4.41511Z" fill="#0B213C"/>
<path d="M14.9805 8.01577C14.9805 8.21588 15.06 8.4078 15.2015 8.5493C15.343 8.69081 15.5349 8.7703 15.735 8.7703H16.4895C16.6897 8.7703 16.8816 8.69081 17.0231 8.5493C17.1646 8.4078 17.2441 8.21588 17.2441 8.01577C17.2441 7.81565 17.1646 7.62373 17.0231 7.48223C16.8816 7.34073 16.6897 7.26123 16.4895 7.26123H15.735C15.5349 7.26123 15.343 7.34073 15.2015 7.48223C15.06 7.62373 14.9805 7.81565 14.9805 8.01577Z" fill="#0B213C"/>
<path d="M5.7075 9.17701C5.76269 9.36793 5.89096 9.52937 6.06448 9.62626C6.23799 9.72316 6.44273 9.74769 6.63422 9.69453C6.82571 9.64136 6.9885 9.5148 7.08722 9.34232C7.18594 9.16984 7.21263 8.96537 7.1615 8.77333C7.04514 8.35314 7.02746 7.91174 7.10985 7.48359C7.19223 7.05543 7.37244 6.65211 7.63642 6.3051C7.9004 5.95809 8.241 5.67678 8.63164 5.48313C9.02228 5.28947 9.45239 5.18871 9.88839 5.18871C10.3244 5.18871 10.7545 5.28947 11.1451 5.48313C11.5358 5.67678 11.8764 5.95809 12.1404 6.3051C12.4043 6.65211 12.5846 7.05543 12.6669 7.48359C12.7493 7.91174 12.7316 8.35314 12.6153 8.77333C12.5641 8.96537 12.5908 9.16984 12.6896 9.34232C12.7883 9.5148 12.9511 9.64136 13.1426 9.69453C13.3341 9.74769 13.5388 9.72316 13.7123 9.62626C13.8858 9.52937 14.0141 9.36793 14.0693 9.17701C14.2479 8.53266 14.2752 7.85574 14.149 7.1991C14.0228 6.54246 13.7466 5.92388 13.3418 5.39165C12.9371 4.85941 12.4148 4.42794 11.8157 4.1309C11.2166 3.83387 10.557 3.67932 9.88839 3.67932C9.21974 3.67932 8.56013 3.83387 7.96108 4.1309C7.36202 4.42794 6.83973 4.85941 6.43497 5.39165C6.03022 5.92388 5.75396 6.54246 5.62777 7.1991C5.50158 7.85574 5.52887 8.53266 5.7075 9.17701Z" fill="#0B213C"/>
<path d="M4.88812 11.1365C4.86732 11.1031 4.8365 11.0771 4.80006 11.0622C4.76362 11.0473 4.72341 11.0443 4.68515 11.0535C3.54709 11.3109 2.44838 11.7186 1.418 12.2661C1.24057 12.3642 1.09276 12.5082 0.990019 12.683C0.887283 12.8578 0.833395 13.057 0.833989 13.2598V15.8192C0.834095 15.8581 0.846237 15.8961 0.86875 15.9278C0.891262 15.9595 0.923044 15.9836 0.959737 15.9965C0.99643 16.0095 1.03624 16.0108 1.0737 16.0003C1.11117 15.9897 1.14446 15.9679 1.169 15.9377L4.87529 11.3591C4.90113 11.3284 4.91635 11.2901 4.91866 11.25C4.92097 11.2099 4.91026 11.1701 4.88812 11.1365Z" fill="#0B213C"/>
<path d="M10.2837 10.7894C10.2648 10.6986 10.2151 10.617 10.1431 10.5585C10.0711 10.4999 9.98113 10.468 9.88832 10.468C9.7956 10.468 9.70572 10.5 9.63383 10.5585C9.56194 10.6171 9.51245 10.6986 9.4937 10.7894L7.93633 18.3152C7.92514 18.37 7.92629 18.4266 7.93968 18.481C7.95307 18.5353 7.97838 18.586 8.01377 18.6293C8.04916 18.6726 8.09375 18.7075 8.1443 18.7315C8.19485 18.7555 8.25011 18.7679 8.30606 18.7679H11.4728C11.5288 18.7679 11.5841 18.7555 11.6346 18.7315C11.6852 18.7075 11.7297 18.6726 11.7651 18.6293C11.8005 18.586 11.8258 18.5353 11.8392 18.481C11.8526 18.4266 11.8538 18.37 11.8426 18.3152L10.2837 10.7894Z" fill="#0B213C"/>
<path d="M7.57175 10.5797C7.52855 10.5836 7.48657 10.5962 7.44833 10.6166C7.41008 10.6371 7.37636 10.6651 7.34917 10.6989L1.30306 18.1688C1.25956 18.2229 1.23221 18.2881 1.22416 18.357C1.21612 18.4259 1.22771 18.4957 1.2576 18.5583C1.28748 18.6209 1.33445 18.6738 1.39309 18.7109C1.45173 18.748 1.51965 18.7678 1.58903 18.7679H5.99477C6.08162 18.7678 6.16575 18.7377 6.23296 18.6827C6.30018 18.6277 6.34637 18.5512 6.36374 18.4661L7.91658 10.963C7.92673 10.9138 7.9252 10.8629 7.9121 10.8145C7.89899 10.766 7.87469 10.7213 7.84114 10.6839C7.80759 10.6465 7.76574 10.6176 7.71895 10.5993C7.67216 10.5811 7.62174 10.5741 7.57175 10.5789V10.5797Z" fill="#0B213C"/>
<path d="M18.3592 12.2661C17.3289 11.7186 16.2302 11.3108 15.0921 11.0535C15.0539 11.0445 15.0138 11.0477 14.9774 11.0626C14.9411 11.0775 14.9103 11.1034 14.8894 11.1366C14.8684 11.1698 14.8584 11.2088 14.8607 11.248C14.8629 11.2872 14.8774 11.3247 14.902 11.3553L18.6082 15.9339C18.6328 15.9641 18.6661 15.9859 18.7035 15.9965C18.741 16.007 18.7808 16.0057 18.8175 15.9927C18.8542 15.9798 18.886 15.9557 18.9085 15.924C18.931 15.8923 18.9432 15.8543 18.9433 15.8154V13.2598C18.9439 13.057 18.89 12.8578 18.7872 12.683C18.6845 12.5082 18.5367 12.3642 18.3592 12.2661Z" fill="#0B213C"/>
<path d="M12.4285 10.6989C12.4013 10.6652 12.3675 10.6373 12.3293 10.6168C12.2911 10.5963 12.2491 10.5837 12.2059 10.5797C12.156 10.5749 12.1055 10.5819 12.0587 10.6001C12.012 10.6184 11.9701 10.6473 11.9366 10.6847C11.903 10.7221 11.8787 10.7668 11.8656 10.8153C11.8525 10.8637 11.851 10.9146 11.8611 10.9638L13.414 18.4661C13.4313 18.5512 13.4775 18.6277 13.5447 18.6827C13.612 18.7377 13.6961 18.7678 13.7829 18.768H18.1887C18.2589 18.7685 18.3277 18.749 18.3872 18.7117C18.4467 18.6744 18.4942 18.6208 18.5243 18.5574C18.5543 18.494 18.5656 18.4233 18.5568 18.3536C18.548 18.284 18.5195 18.2183 18.4746 18.1643L12.4285 10.6989Z" fill="#0B213C"/>
</g>
<defs>
<clipPath id="clip0">
<rect width="18.1089" height="18.1089" fill="white" transform="translate(0.833984 0.659058)"/>
</clipPath>
</defs>
</svg>
