<svg width="19" height="19" viewBox="0 0 19 19" fill="none" xmlns="http://www.w3.org/2000/svg">
<g clip-path="url(#clip0)">
<path d="M8.16634 6.591C8.01163 6.591 7.86326 6.65246 7.75386 6.76186C7.64447 6.87125 7.58301 7.01963 7.58301 7.17434V14.7577C7.58301 14.9124 7.64447 15.0608 7.75386 15.1701C7.86326 15.2795 8.01163 15.341 8.16634 15.341C8.32105 15.341 8.46942 15.2795 8.57882 15.1701C8.68822 15.0608 8.74968 14.9124 8.74968 14.7577V7.17434C8.74968 7.01963 8.68822 6.87125 8.57882 6.76186C8.46942 6.65246 8.32105 6.591 8.16634 6.591Z" fill="#0B213C"/>
<path d="M8.62186 1.50433C8.49338 1.39877 8.33226 1.34106 8.16598 1.34106C7.9997 1.34106 7.83858 1.39877 7.71011 1.50433C7.37725 1.74692 7.10182 2.05974 6.90333 2.42063C6.70484 2.78152 6.58815 3.18165 6.56152 3.59266C6.56152 4.94483 7.87227 5.80933 7.92827 5.84258C7.99893 5.88824 8.08127 5.91253 8.1654 5.91253C8.24953 5.91253 8.33186 5.88824 8.40252 5.84258C8.46086 5.807 9.76986 4.94483 9.76986 3.59266C9.73963 3.18257 9.62145 2.78378 9.42336 2.42343C9.22527 2.06308 8.9519 1.74961 8.62186 1.50433Z" fill="#0B213C"/>
<path d="M4.69206 12.1093C3.8428 11.8748 2.94239 11.9033 2.10964 12.191C1.99965 12.2269 1.89978 12.2885 1.81826 12.3706C1.73675 12.4528 1.67593 12.5531 1.64083 12.6633C1.60573 12.7736 1.59735 12.8906 1.61639 13.0048C1.63542 13.1189 1.68133 13.2269 1.75031 13.3198C2.26088 14.037 2.97647 14.583 3.80306 14.886C4.65221 15.125 5.55441 15.0963 6.38664 14.8038C6.49664 14.7679 6.59655 14.7065 6.67812 14.6245C6.75969 14.5424 6.8206 14.4422 6.85581 14.332C6.89102 14.2218 6.89953 14.1048 6.88064 13.9907C6.86174 13.8766 6.81599 13.7686 6.74714 13.6756C6.23628 12.9577 5.51972 12.4116 4.69206 12.1093Z" fill="#0B213C"/>
<path d="M4.69206 8.60935C3.8428 8.3748 2.94239 8.40328 2.10964 8.69102C1.99965 8.72694 1.89978 8.7885 1.81826 8.87063C1.73675 8.95275 1.67593 9.05308 1.64083 9.16334C1.60573 9.2736 1.59735 9.39062 1.61639 9.50476C1.63542 9.61889 1.68133 9.72687 1.75031 9.81976C2.26088 10.537 2.97647 11.083 3.80306 11.386C4.65221 11.625 5.55441 11.5963 6.38664 11.3038C6.49664 11.2679 6.59655 11.2065 6.67812 11.1245C6.75969 11.0424 6.8206 10.9422 6.85581 10.832C6.89102 10.7218 6.89953 10.6048 6.88064 10.4907C6.86174 10.3766 6.81599 10.2686 6.74714 10.1756C6.23628 9.4577 5.51972 8.91159 4.69206 8.60935Z" fill="#0B213C"/>
<path d="M4.30772 7.83177C5.00259 8.02777 5.74099 8.00475 6.4223 7.76586C6.52364 7.73331 6.61577 7.67708 6.69104 7.60183C6.7663 7.52657 6.82255 7.43446 6.85511 7.33312C6.88767 7.23179 6.89561 7.12415 6.87827 7.01914C6.86093 6.91412 6.8188 6.81476 6.75539 6.72927C6.33666 6.14109 5.74949 5.69364 5.0713 5.44594C4.37564 5.25355 3.63802 5.27632 2.95555 5.51127C2.8543 5.54413 2.76233 5.60063 2.68726 5.6761C2.61218 5.75157 2.55616 5.84384 2.52384 5.94526C2.49151 6.04668 2.48381 6.15435 2.50137 6.25934C2.51892 6.36433 2.56124 6.46363 2.6248 6.54902C3.04306 7.13703 3.62988 7.58431 4.30772 7.83177Z" fill="#0B213C"/>
<path d="M11.6411 12.1093C12.4904 11.8748 13.3908 11.9033 14.2236 12.191C14.3335 12.2269 14.4334 12.2885 14.5149 12.3706C14.5964 12.4528 14.6573 12.5531 14.6924 12.6633C14.7275 12.7736 14.7358 12.8906 14.7168 13.0048C14.6978 13.1189 14.6519 13.2269 14.5829 13.3198C14.0717 14.0374 13.3552 14.5834 12.5278 14.886C11.6786 15.125 10.7765 15.0963 9.94422 14.8038C9.83422 14.7679 9.73432 14.7065 9.65275 14.6245C9.57117 14.5424 9.51027 14.4422 9.47506 14.332C9.43985 14.2218 9.43133 14.1048 9.45023 13.9907C9.46912 13.8766 9.51488 13.7686 9.58372 13.6756C10.0952 12.9573 10.8126 12.4112 11.6411 12.1093Z" fill="#0B213C"/>
<path d="M11.6411 8.60935C12.4904 8.3748 13.3908 8.40328 14.2236 8.69102C14.3335 8.72694 14.4334 8.7885 14.5149 8.87063C14.5964 8.95275 14.6573 9.05308 14.6924 9.16334C14.7275 9.2736 14.7358 9.39062 14.7168 9.50476C14.6978 9.61889 14.6519 9.72687 14.5829 9.81976C14.0717 10.5374 13.3552 11.0834 12.5278 11.386C11.6786 11.625 10.7765 11.5963 9.94422 11.3038C9.83422 11.2679 9.73432 11.2065 9.65275 11.1245C9.57117 11.0424 9.51027 10.9422 9.47506 10.832C9.43985 10.7218 9.43133 10.6048 9.45023 10.4907C9.46912 10.3766 9.51488 10.2686 9.58372 10.1756C10.0952 9.45732 10.8126 8.91118 11.6411 8.60935Z" fill="#0B213C"/>
<path d="M12.0238 7.83177C11.329 8.02777 10.5906 8.00475 9.90925 7.76586C9.80791 7.73331 9.71579 7.67708 9.64052 7.60183C9.56525 7.52657 9.509 7.43446 9.47644 7.33312C9.44388 7.23179 9.43594 7.12415 9.45329 7.01914C9.47063 6.91412 9.51275 6.81476 9.57617 6.72927C9.99489 6.14109 10.5821 5.69364 11.2603 5.44594C11.9559 5.25355 12.6935 5.27632 13.376 5.51127C13.4773 5.54413 13.5692 5.60063 13.6443 5.6761C13.7194 5.75157 13.7754 5.84384 13.8077 5.94526C13.84 6.04668 13.8477 6.15435 13.8302 6.25934C13.8126 6.36433 13.7703 6.46363 13.7068 6.54902C13.2885 7.13703 12.7017 7.58431 12.0238 7.83177Z" fill="#0B213C"/>
</g>
<defs>
<clipPath id="clip0">
<rect width="14" height="14" fill="white" transform="translate(1.16602 1.341)"/>
</clipPath>
</defs>
</svg>
