<svg width="19" height="19" viewBox="0 0 19 19" fill="none" xmlns="http://www.w3.org/2000/svg">
<path d="M6.49316 11.3304V7.77326C6.49316 7.6875 6.52723 7.60525 6.58788 7.5446C6.64852 7.48396 6.73077 7.44989 6.81654 7.44989H10.697C10.7828 7.44989 10.865 7.48396 10.9257 7.5446C10.9863 7.60525 11.0204 7.6875 11.0204 7.77326V11.3304" stroke="#0B213C" stroke-linecap="round" stroke-linejoin="round"/>
<path d="M1.96582 11.3304V9.71351C1.96582 9.62775 1.99989 9.54549 2.06053 9.48485C2.12118 9.42421 2.20343 9.39014 2.28919 9.39014H6.49304V11.3304" stroke="#0B213C" stroke-linecap="round" stroke-linejoin="round"/>
<path d="M11.0205 11.3304V9.39014H15.2244C15.3101 9.39014 15.3924 9.42421 15.453 9.48485C15.5137 9.54549 15.5477 9.62775 15.5477 9.71351V11.3304" stroke="#0B213C" stroke-linecap="round" stroke-linejoin="round"/>
</svg>
