<svg width="19" height="19" viewBox="0 0 19 19" fill="none" xmlns="http://www.w3.org/2000/svg">
<g clip-path="url(#clip0)">
<path d="M4.25688 11.43C4.0716 11.6199 3.90264 11.8251 3.75181 12.0433C3.7366 12.0651 3.71635 12.0829 3.69279 12.0952C3.66922 12.1075 3.64304 12.1139 3.61646 12.1139C3.58989 12.1139 3.56371 12.1075 3.54014 12.0952C3.51658 12.0829 3.49633 12.0651 3.48112 12.0433C3.33029 11.8251 3.16133 11.6199 2.97605 11.43C2.8827 11.3398 2.75765 11.2898 2.62782 11.2908C2.49798 11.2919 2.37377 11.3439 2.28191 11.4357C2.19006 11.5275 2.13793 11.6516 2.13674 11.7815C2.13555 11.9113 2.1854 12.0364 2.27556 12.1298C2.72645 12.5676 3.0232 13.1398 3.1213 13.7606C3.1213 13.8919 3.17347 14.0178 3.26633 14.1107C3.35919 14.2036 3.48514 14.2557 3.61646 14.2557C3.74779 14.2557 3.87374 14.2036 3.9666 14.1107C4.05946 14.0178 4.11163 13.8919 4.11163 13.7606C4.20972 13.1398 4.50648 12.5676 4.95737 12.1298C5.04752 12.0364 5.09738 11.9113 5.09619 11.7815C5.095 11.6516 5.04286 11.5275 4.95101 11.4357C4.85916 11.3439 4.73494 11.2919 4.60511 11.2908C4.47528 11.2898 4.35022 11.3398 4.25688 11.43Z" fill="#0B213C"/>
<path d="M8.21781 11.43C8.03253 11.6199 7.86358 11.8251 7.71275 12.0433C7.69754 12.0651 7.67729 12.0829 7.65372 12.0952C7.63016 12.1075 7.60398 12.1139 7.5774 12.1139C7.55083 12.1139 7.52464 12.1075 7.50108 12.0952C7.47751 12.0829 7.45727 12.0651 7.44206 12.0433C7.29122 11.8251 7.12227 11.6199 6.93699 11.43C6.84364 11.3398 6.71859 11.2898 6.58875 11.2908C6.45892 11.2919 6.3347 11.3439 6.24285 11.4357C6.151 11.5275 6.09887 11.6516 6.09768 11.7815C6.09649 11.9113 6.14634 12.0364 6.23649 12.1298C6.68738 12.5676 6.98414 13.1398 7.08224 13.7606C7.08224 13.8919 7.13441 14.0178 7.22727 14.1107C7.32013 14.2036 7.44608 14.2557 7.5774 14.2557C7.70873 14.2557 7.83467 14.2036 7.92754 14.1107C8.0204 14.0178 8.07257 13.8919 8.07257 13.7606C8.17066 13.1398 8.46742 12.5676 8.91831 12.1298C9.00846 12.0364 9.05831 11.9113 9.05713 11.7815C9.05594 11.6516 9.0038 11.5275 8.91195 11.4357C8.8201 11.3439 8.69588 11.2919 8.56605 11.2908C8.43622 11.2898 8.31116 11.3398 8.21781 11.43Z" fill="#0B213C"/>
<path d="M17.7589 10.2416C17.6234 10.0092 17.4385 9.80932 17.2173 9.65613C16.9961 9.50293 16.744 9.4001 16.4788 9.35489C16.4219 9.34335 16.369 9.31701 16.3256 9.27853C16.2821 9.24005 16.2495 9.19078 16.2312 9.1357L15.9671 8.33419C15.9018 8.13581 15.7755 7.96316 15.6061 7.8409C15.4368 7.71865 15.2332 7.65306 15.0243 7.6535H13.3559C13.2027 7.65356 13.0543 7.60035 12.936 7.50297L10.8088 5.75207C10.5191 5.52033 10.1838 5.35223 9.8248 5.25872C9.46578 5.16522 9.0911 5.1484 8.72515 5.20937L2.24179 6.28751C2.16516 6.30025 2.09547 6.33961 2.04499 6.39866C1.99451 6.45771 1.96648 6.53267 1.96582 6.61036V7.25869C1.96587 7.30682 1.97645 7.35435 1.99681 7.39796C2.01716 7.44157 2.04681 7.4802 2.08367 7.51115C2.12052 7.54209 2.1637 7.56461 2.21018 7.57711C2.25665 7.58961 2.3053 7.5918 2.35271 7.58352L8.93048 6.43936C9.12627 6.4053 9.32722 6.41587 9.51835 6.47028C9.70949 6.5247 9.88587 6.62155 10.0344 6.75363C10.0575 6.77438 10.0744 6.80115 10.0832 6.83096C10.092 6.86077 10.0924 6.89244 10.0842 6.92243C10.0761 6.95243 10.0598 6.97957 10.0371 7.00082C10.0144 7.02208 9.98626 7.03661 9.9558 7.0428L2.66301 8.49132C2.57783 8.50802 2.49678 8.54134 2.4245 8.58939C2.35221 8.63743 2.29011 8.69926 2.24175 8.77134C2.19338 8.84341 2.1597 8.92432 2.14264 9.00942C2.12557 9.09452 2.12546 9.18216 2.1423 9.2673C2.15914 9.35245 2.1926 9.43344 2.24077 9.50565C2.28894 9.57785 2.35088 9.63984 2.42304 9.68808C2.4952 9.73632 2.57616 9.76986 2.66129 9.78678C2.74643 9.8037 2.83406 9.80366 2.91918 9.78667L11.3621 8.1117C11.4121 8.10174 11.4638 8.10354 11.5131 8.11694C11.5624 8.13035 11.6078 8.15499 11.646 8.18894L12.4527 8.9066C12.4869 8.93727 12.511 8.97758 12.5218 9.02222C12.5326 9.06685 12.5296 9.1137 12.5132 9.1566C12.4969 9.1995 12.4679 9.23643 12.4301 9.26252C12.3923 9.28861 12.3475 9.30263 12.3016 9.30273H11.671C11.4678 9.30286 11.2695 9.36552 11.1031 9.48221C10.9367 9.59891 10.8102 9.76398 10.7408 9.95503L9.89968 12.2658C9.84534 12.4154 9.82787 12.576 9.84877 12.7338C9.86966 12.8916 9.9283 13.0421 10.0197 13.1725C10.1111 13.3028 10.2326 13.4092 10.3739 13.4826C10.5152 13.556 10.672 13.5943 10.8312 13.5942H12.2837C12.3346 13.5947 12.3849 13.5835 12.4307 13.5614C12.4765 13.5393 12.5166 13.5069 12.5478 13.4667C12.5785 13.4267 12.5997 13.3802 12.6098 13.3309C12.62 13.2815 12.6189 13.2304 12.6066 13.1815C12.5564 12.9935 12.5304 12.7998 12.5293 12.6052C12.5293 11.9923 12.7728 11.4045 13.2061 10.9712C13.6395 10.5378 14.2272 10.2944 14.8401 10.2944H15.9955C16.1644 10.2768 16.3349 10.3042 16.4898 10.3738C16.6447 10.4433 16.7785 10.5526 16.8775 10.6905C16.9374 10.8074 17.0413 10.8957 17.1663 10.936C17.2913 10.9763 17.4272 10.9653 17.544 10.9054C17.6609 10.8455 17.7492 10.7417 17.7895 10.6167C17.8298 10.4917 17.8188 10.3558 17.7589 10.2389V10.2416Z" fill="#0B213C"/>
<path d="M14.84 14.2558C15.7516 14.2558 16.4906 13.5168 16.4906 12.6052C16.4906 11.6936 15.7516 10.9547 14.84 10.9547C13.9284 10.9547 13.1895 11.6936 13.1895 12.6052C13.1895 13.5168 13.9284 14.2558 14.84 14.2558Z" fill="#0B213C"/>
</g>
<defs>
<clipPath id="clip0">
<rect width="15.8453" height="15.8453" fill="white" transform="translate(1.96582 1.79077)"/>
</clipPath>
</defs>
</svg>
